<svg
   xmlns:svg="http://www.w3.org/2000/svg"
   xmlns="http://www.w3.org/2000/svg"
   version="1.1"
   id="svg951"
   width="2242"
   height="1350"
   viewBox="0 0 2242 1350">
   <path fill="#1C2E0D" stroke="#223810" stroke-width="0.25%" d="m 1102.9876,1354.5842 c 15.366,-79.3038 58.9521,-122.8264 91.5131,-187.4819 48.9066,-52.76 90.3471,-125.7088 56.7558,-198.7525 -17.6029,-42.25355 -49.402,-76.47087 -49.3179,-125.3319 -8.1698,-44.02633 -1.6555,-97.84949 -41.5078,-128.84022 -44.2997,-22.22796 -37.2536,-128.45877 -101.9467,-83.14216 -41.9656,13.43862 -48.6096,40.9822 -75.90244,60.33573 -1.9912,5.53284 -45.924,4.48528 -35.56121,13.85535 -10.94181,3.68748 -83.36746,42.23248 -37.7134,12.61796 22.01928,-9.10792 1.43352,-18.4661 -12.0713,-4.30386 -6.70387,-9.77796 -34.21467,3.85087 -34.9118,8.0591 -9.31177,-5.8441 -18.45738,17.67466 -19.1872,1.64758 4.72138,1.56694 -30.17971,8.5488 -14.77564,21.96634 -17.31197,4.36254 -14.44575,13.92009 -20.97391,-3.49772 -7.85607,14.93764 -18.24298,-15.40084 -6.98765,-8.11616 21.07678,-10.61322 -17.29578,-14.66275 -10.8805,12.26833 4.68131,10.57107 8.91513,16.74873 19.9335,27.53193 4.73816,6.55407 -25.41135,4.92559 -21.3974,14.7399 -9.6881,23.46356 -40.96213,8.91494 -29.623,0.3334 -15.43493,13.63368 -15.25174,11.54596 2,17.19379 -4.67799,-1.97701 27.85133,6.01902 15.75,14.28869 -25.95232,-26.71825 -20.50809,16.71369 -29.5833,-2.35608 -6.79294,-6.40654 -12.54789,9.87415 -15.0327,34.4172 -14.9238,10.0759 -6.05402,33.55826 -18.9604,30.19029 -11.03213,24.80726 -12.24587,11.07275 -1.4785,-5.45659 11.31202,-21.04387 -22.21073,-25.42862 -19.5795,-25.29391 5.75678,-8.68006 29.00481,4.70547 29.3493,9.08574 5.3863,-11.86215 20.4163,-40.76602 1.5683,-41.56688 -8.48613,13.41271 -35.67158,41.5672 -18.0896,11.78445 6.17347,-24.91532 -74.32992,-58.05495 -62.825,-16.9103 -9.6107,14.76292 -19.03642,9.99532 -6.2281,-8.10676 -21.97699,-13.46642 -32.5174,30.97689 -44.06871,34.94633 -15.73993,9.14293 -12.77787,29.50267 -28.79969,34.39659 2.40735,22.91058 -24.15615,25.81465 -5.1057,37.49853 17.15027,17.05823 -14.3733,-11.76823 -21.0446,5.70254 6.72679,4.14917 8.83227,35.03835 2.09431,26.28779 -4.50814,2.60252 -9.82604,25.40941 -10.96701,-4.83267 -0.86036,-15.43459 -7.66602,-36.70223 3.8635,-30.66863 8.22683,-7.16656 8.62234,-25.17688 14.3797,-18.68497 -32.72464,-8.05124 8.34295,3.73192 10.0143,-11.92654 1.57219,-12.45438 7.88092,-8.2434 17.6696,-25.10478 22.87866,-17.18753 -24.20697,-22.57268 -27.7332,-22.7574 0.15783,-23.53068 -52.17069,-43.93974 -63.1939,-12.55905 -1.57873,1.09455 -30.31571,15.0813 -21.827,7.63261 -4.53684,7.32616 -3.74597,28.68381 -22.766,35.07685 -9.33461,3.46474 -18.61096,-6.12197 -29.3323,9.56521 -7.48922,0.30395 -34.3064,13.70199 -25.0748,8.61001 -1.77645,4.02075 -9.00066,-6.89365 -22.2004,-2.12562 18.03275,-6.04362 -32.79748,0.2589 -15.2946,-16.86666 -5.47321,14.18161 -7.95488,0.008 -14.15546,3.86725 -27.3029,-14.2586 31.23413,-18.13444 -7.33484,-18.5096 -5.34444,17.53243 -1.42881,-0.70447 -5.12,-4.69098 21.54768,-20.41762 -17.71888,-12.05871 -8.81591,-11.68719 -11.18572,14.06088 -44.58804,-6.41594 -32.95179,-16.65024 -20.43284,18.83469 -6.70149,-6.65962 -18.7604,-4.62984 13.64176,3.68767 -18.57769,-10.68982 -10.107,-14.78303 -19.1449,9.44461 -8.87221,-21.7377 -2.3096,-26.18724 -3.45811,2.24457 -50.21839,-7.34871 -39.3215,-2.35822 -18.57473,-10.92337 0.86385,-26.21758 3.031,-19.70377 9.82128,28.87951 -1.40217,-12.46219 15.50026,-2.56499 19.84725,4.5709 -16.54336,15.13282 -0.21446,11.09548 4.68805,6.75534 15.66467,-10.9454 15.6626,-2.7715 4.7369,-13.8343 -20.95169,-20.63639 -17.6129,-17.86559 -15.43116,-10.55652 -0.66833,-27.8998 -6.527,-25.93762 22.32031,-15.78913 18.66746,-6.27343 25.1103,8.17902 -4.35757,12.13763 -17.44268,-9.27723 -12.3901,17.20137 18.79165,-13.10167 22.13247,-2.96122 24.8063,-26.33672 17.29773,5.41812 20.34629,-14.12724 42.5752,-7.33522 15.10723,-5.88061 -10.28547,-26.90245 -6.33318,-20.56234 2.81563,-8.18778 -1.32961,-22.09231 -7.32302,-13.10244 -27.45136,-11.02022 -13.00642,11.9087 -6.6688,15.41667 -0.21058,14.87537 -11.44062,16.34746 -35.6166,15.79928 46.84354,2.02204 -26.37254,-68.86132 4.8185,-24.29378 -0.099,-6.6965 24.16351,-10.28917 4.9639,-19.95415 -7.26661,6.23 -34.4789,-9.44945 -20.6341,-17.69892 4.65583,-5.55581 -6.11829,-10.94306 -10.68801,3.55431 10.98641,11.81551 -5.17041,9.48258 6.54901,19.09764 -16.20286,6.62992 -8.69066,-19.71213 -23.46265,-10.64978 8.98733,-0.53284 -9.89844,-11.83015 -11.78125,-14.67142 19.98168,-10.2721 22.62367,-21.08589 1.1001,-28.56942 0.0766,9.58411 3.06507,25.08972 -12.4343,14.45634 2.18161,-6.20966 -32.83689,-17.19746 -1.6541,-22.48674 15.13891,-14.1046 -19.75202,13.96511 -21.53638,0.0545 12.04947,15.35541 -32.37756,11.78827 -12.03482,17.4682 -6.19951,7.53215 -51.161233,-9.96429 -33.21069,-5.95353 -34.212684,-3.96973 -5.31053,-1.65141 -6.88361,13.91365 30.48035,9.42321 14.92629,23.97433 -6.670999,25.3386 11.010449,-0.96164 26.215309,-32.59296 -10.079,-7.97064 5.433596,-0.50802 -18.254889,-16.57775 -4.7089,-13.02421 11.895762,4.90947 -8.47073,-20.1867 0.1125,-14.82654 -1.776096,-3.69115 -5.848138,-38.29047 -5.0419,-30.5 1.258637,-3.05132 -7.545752,-24.05781 8.0279,-27.32124 -5.129096,-8.13632 -33.898599,-8.37868 -17.6395,-16.0791 3.975474,-13.47876 9.69901,-26.98666 12.3641,-7.24466 12.751994,1.08139 -1.961665,25.73494 26.981699,15.395 -3.45332,-22.62948 -0.52548,-29.65489 -14.510699,-37.77821 -22.217675,11.58651 -67.965417,-27.28674 -48.1469,-38.40095 -13.212056,16.56565 -30.500831,-46.55249 -10.8659,-17.95753 4.714437,-16.7974 -16.402679,-39.46851 -0.3456,-21.04947 16.61375,-4.63657 44.57967,2.78589 32.193312,1.3941 -16.387306,-38.11436 22.001021,16.4369 17.174788,-19.78419 7.423613,8.0451 9.212549,4.57965 25.629599,4.68897 26.19844,12.96752 63.44922,-105.38744 36.9035,-25.99737 10.22067,-19.22763 26.52037,10.26055 34.13655,-22.99384 14.26919,32.73131 20.12633,-34.75332 25.56476,8.77427 9.09656,-7.45522 12.65534,3.16376 28.74086,-5.64512 -12.47467,-6.55855 46.59905,73.58258 23.34313,32.6943 8.27532,16.14924 34.11721,26.63543 29.8392,7.508 -31.02577,-2.17806 -13.412,-51.84747 -9.75,-36.56767 7.04656,14.78071 16.77798,-15.98773 21.0683,-0.13528 9.13641,1.0669 23.29205,-17.06179 21.86287,-4.98726 -13.48945,10.89847 -41.20256,-26.40545 -20.41893,-13.94293 -34.33708,-22.92623 13.09086,-61.86963 1.48796,-10.06982 13.30783,8.06675 29.53332,40.43165 43.16107,6.1496 6.92578,-38.28497 22.02907,31.68398 13.24193,16.11525 19.56883,-6.82937 -3.30873,19.17894 1.37612,18.64009 -31.17696,12.79819 27.25988,10.18095 5.61908,15.99517 -9.94139,3.68987 -11.47589,16.72072 6.602,4.09987 17.72346,23.3478 11.45348,7.89672 34.793,13 0.70245,12.34374 -14.74114,23.09216 5.42339,20.34732 14.78181,4.79639 26.9294,12.79721 20.50227,22.69513 1.26271,-8.78643 24.45793,13.32081 7.90344,24.44413 7.45458,-2.67669 20.59442,17.92473 34.9612,-4.41631 0.79156,-17.53571 3.5227,33.8609 5.1629,21.05864 9.71784,2.65835 21.33006,-24.4516 45.33675,-13.06147 11.39364,13.75353 14.00568,-19.48011 10.91695,-17.50839 27.21492,-3.22311 14.41991,-32.39272 9.8104,-24.80898 2.50312,12.77561 39.2544,-8.68699 33.2984,-4.03858 11.92075,4.91594 19.10572,-16.43141 12.7853,-18.14598 3.56376,-17.3057 -2.26651,-25.49799 15.1932,-28.67208 9.67906,-9.52305 31.5796,21.23112 23.913,13.63471 28.55742,-1.14718 5.28945,-16.63467 10.25,-18.17493 -12.68836,7.92331 7.04988,-30.03615 -29.3257,-14.67719 -17.97412,-6.64986 -54.28796,3.13776 3.3259,-12.66733 -0.4637,-14.73208 -55.77965,-9.00701 -42.56,-7.46161 -33.08486,-2.00414 -15.43052,-9.36142 -10.4125,-6.14594 7.84414,-15.83136 33.47068,-17.56229 -7.62238,-14.56059 -22.83421,1.79367 -39.3728,1.55313 -15.12212,14.69855 18.03721,22.94734 34.53752,8.40553 6.9573,16.75947 17.02349,6.72591 -57.69027,-18.60041 -46.52441,-8.88779 -19.55241,-10.05894 -0.81217,-14.55541 -15.47629,-26.42707 -7.36785,-39.83435 8.25151,56.64376 5.4908,-22.12761 -8.43338,-17.78156 -18.92344,-16.03684 -33.1645,-16.85608 -2.32852,1.51634 -28.05274,-6.9005 -9.32605,5.36116 -16.27337,-8.27287 -38.69437,-18.65628 -40.74375,-7.29464 -31.97232,-13.64262 11.47604,20.69911 -17.3833,0.91813 13.50302,-15.63642 -71.16733,-1.88962 -21.771,0.69058 1.22928,20.44783 -10.60391,-9.13696 4.27577,-9.73577 23.18502,-4.34919 -75.08217,2.47426 -36.88727,2.72248 -28.87943,3.78358 22.45545,2.21666 -4.52966,18.31854 -25.58119,1.41138 -41.37604,-16.93792 -26.23624,-27.98048 3.40377,-23.66993 16.44619,12.52921 22.06086,-13.50449 -7.88464,-19.24959 -37.7433,-1.5905 -13.83996,-18.39861 8.51042,0.20907 10.48142,6.48402 24.1744,-0.53352 24.87595,5.19168 8.93474,-14.53242 -2.6141,-11.80393 19.75421,0.97509 11.85639,3.83046 28.445,9.15144 14.37082,-10.22342 -27.4781,-17.05122 -11.3547,-27.35512 9.8575,18.19034 40.06201,-10.85754 28.47544,-6.12426 -0.80248,-11.66818 -2.21753,-7.6391 -3.67449,-18.15491 -8.69533,-4.70391 1.37655,-50.61207 -4.04275,-37.63967 23.7985,-20.91993 34.38953,-17.56214 49.405,-28.49775 4.69345,17.40056 21.30119,-17.65912 30.48741,3.71 18.76588,1.65283 16.21362,25.84158 39.18259,21.58945 -0.61039,38.61669 36.487,21.44352 29.3147,9.98587 -20.31193,18.98861 44.15311,24.02887 18.2622,19.57635 22.96768,8.58166 29.20435,28.3132 20.0268,20.2727 13.00826,-19.81955 12.87939,-7.67991 20.723,13.59079 12.14128,5.53997 38.6087,10.74832 29.4409,25.77808 -8.51777,8.05191 22.16564,35.27859 23.4521,33.34215 -8.69393,10.59748 -26.69023,-12.59612 -23.11775,11.06548 0.72385,16.72765 30.21084,32.55538 23.72505,-2.11773 9.31389,-3.83943 6.05159,-38.1736 19.5,-18.51611 0.92619,-2.61167 -23.97865,-30.32548 -29.93923,-15.23973 -14.47281,-19.38146 24.25516,-18.35925 5.89593,-27.23609 23.16846,-0.70203 35.01683,-14.66647 29.1023,-15.47057 -1.67043,-31.76388 -11.53244,10.93286 -20.8205,-2.82709 -12.27751,-1.4721 -34.36533,-4.77707 -42.6925,-20.8257 0.23942,-13.96497 13.33753,-45.95948 11.23682,-28.74106 17.63679,-22.15466 -2.69723,16.47873 15.96698,26.67074 -10.81229,-18.68312 13.96054,-4.59003 14.4648,-28.74671 -11.12674,-11.68642 -0.0555,-30.38753 13.5352,-21.16667 21.21721,7.49803 37.41941,12.05879 37.2668,-3.65179 5.35635,-4.59129 31.18763,-16.53203 4.22805,-21.45827 1.99998,-7.442343 8.47353,-8.817661 18.09555,-23.723267 12.29764,-7.53519 0.26344,16.212056 22.2993,6.05898 29.66475,4.794258 9.0311,-31.132581 3.7071,-17.870967 -15.10907,23.137902 -16.95164,-11.29179 -7.1974,-21.768091 17.76592,-23.099795 7.59523,27.3665 20.583,13.801504 7.77412,-10.61741 9.98555,27.888324 11.7151,30.444224 2.39268,5.242519 32.61458,-15.429475 32.26361,-21.751783 11.84774,-14.69957 13.17264,10.698822 23.72939,21.571513 10.01009,12.052117 -41.77829,11.315697 -25.175,41.828387 12.86671,15.66169 8.89798,-19.56536 26.1253,4.56908 13.30192,-16.12579 7.4122,19.26145 11.8626,7.11719 -27.79051,31.35078 28.21178,-4.18416 12.6511,21.7699 -2.319,10.97628 -36.22946,33.47773 -11.0867,33.23011 -19.67981,16.04932 -27.4008,25.76382 -2.4665,21.51047 5.8972,-20.16056 -7.54998,49.07678 3.6487,19.16289 17.94781,6.31794 2.6701,19.04258 4.491,39.0931 -4.59312,23.49857 42.05383,-48.30736 25.16601,-29.27375 9.54612,-26.37954 7.77837,-12.39883 21.59899,-3.49889 -5.10725,7.81872 -4.38953,43.38235 1.6014,18.94892 4.93811,11.17038 8.7769,39.88502 21.8768,20.56729 5.63304,-41.36934 11.7707,-48.1285 13.0163,-43.0691 -8.3227,-7.87077 16.22788,-33.12162 16,-25.02431 8.20007,12.25052 -6.50351,25.31882 3.4398,43.50935 11.14385,22.21442 14.25759,-31.89721 24.79701,-9.31164 13.20708,-7.5366 2.12376,38.01955 14.06379,17.86347 4.29239,-1.16157 16.71021,4.1183 30.94905,-4.06554 -13.10375,-20.06376 13.4425,9.06335 11.7176,-0.87736 16.5347,-14.58187 -11.9859,-21.85638 5.8286,-28.54629 -20.9679,-9.597 13.6608,-18.17511 14.6828,-12.02353 4.989,-17.9626 23.6421,15.28723 36.3916,-0.64143 18.1297,-14.41419 -11.315,-47.42169 12.4206,-51.77853 6.4375,13.56521 20.0619,-6.43732 17.4542,15.06406 -5.6003,11.32985 -17.6157,28.11238 -15.7448,24.39076 -6.0387,21.66024 25.0734,21.14453 18.265,-10.71373 12.1035,1.43756 27.9918,16.35079 44.1941,22.53769 17.5656,19.40266 6.7942,-55.6375 8.2779,-40.50257 -4.9061,-20.99903 24.3911,-0.10818 36.0809,-12.18214 -3.2074,13.15839 -4.7629,44.39616 -22.5128,45.50767 -4.3465,12.98457 34.5254,-0.52635 31.2867,-1.72495 -1.0818,-13.4786 0.6652,-35.50811 14.7802,-28.19193 5.8498,-6.00997 9.9838,26.89055 9.2416,30.79891 -0.043,17.88393 14.098,-1.18851 24.3861,11.47118 29.4,18.86083 8.9702,-13.71682 7.0726,12.36514 -6.3377,-3.4637 -18.4627,39.32608 0.4925,19.53937 -5.6066,-32.55595 9.9786,-20.97291 16.1078,-9.97899 6.364,-15.50389 24.6447,35.60501 24.6978,25.2217 13.3779,-9.73848 3.7888,-24.30704 23.4658,-21.8452 -27.0871,22.79935 25.4011,7.74333 11.8167,-8.02252 -29.1083,-14.45511 -7.6672,-38.46943 7.9622,-17.82788 -33.0261,-13.36446 11.4314,35.58274 2.9846,16.85984 -5.7626,-8.1503 -7.604,-7.67643 9.3321,-21.69633 -12.982,-24.90232 -41.0108,3.39276 -44.6262,-23.53466 -18.9423,-13.51108 32.1108,-45.9535 18.3398,-34.59735 11.4806,5.8315 18.7468,9.30475 31.1102,17.6719 8.6835,-8.46611 7.9705,33.87923 13.4223,23.16304 17.0052,10.52404 18.9537,-7.91418 29.3163,9.03284 18.629,17.64849 25.2217,42.62829 32.6925,21.66201 8.5237,14.1103 -2.1607,-29.94901 8.5231,-16.17447 8.6507,10.54677 36.3299,-23.93153 36.4701,0.53096 26.0215,-2.0711 29.5593,40.78416 26.6924,6.28592 2.4996,-18.72767 -8.0182,-38.55016 -8.3284,-47.58628 -24.0953,17.25785 -12.018,-31.07592 -8.955,-17.45773 -5.9222,-11.86259 -28.4532,12.51926 -17.1126,-2.83277 -12.5669,-14.58349 13.6214,-24.8063 2.0777,-19.86401 -11.5014,-14.89914 -15.3494,3.24819 -23.4918,-13.36364 6.3538,-17.5566 -35.7269,-0.38729 -25.4332,-19.96147 14.7188,0.90536 37.3219,-34.555797 33.0684,-28.153926 22.7852,34.040966 8.2181,-26.420493 29.5651,-7.538965 0.521,19.251828 33.923,27.064339 29.9073,18.482184 23.7869,3.620105 -15.3898,26.319987 -12.2501,33.170557 1.1048,-5.16461 31.5514,8.28933 37.2885,-9.54939 1.9257,-30.301028 22.9976,5.64729 3.9967,21 15.7455,3.60937 23.6078,-7.27195 19.2662,14.29189 20.4748,1.12476 48.1064,-13.56002 31.7019,-7.89054 -7.4982,16.49491 21.0871,-22.58252 10.3266,-0.40135 11.8975,0.66073 16.0258,11.64945 28.0796,18.65309 6.2835,33.88482 19.1007,-30.96236 28.2875,1.59541 20.6952,-15.9122 3.2495,28.27517 16.8343,13.41554 13.9145,-5.01548 8.1566,23.35795 21.6487,17.33595 -17.6404,17.41172 9.9741,38.86569 2.9208,11.2444 24.1819,1.75192 23.5801,3.27514 12.2291,22.3958 -5.5337,24.44687 4.4028,23.81997 12.9135,13.72539 9.1853,-17.70469 26.7526,-43.38177 14.4589,-12.6156 6.9758,15.30926 22.3532,-12.48026 26.5762,3.61517 10.1767,-10.8534 8.3385,-6.25289 22.5588,-5.86972 -11.7485,9.22395 -6.4079,34.77932 -9.3324,32.95902 -12.0966,13.10008 -23.4634,19.47533 -11.6593,37.30398 3.3765,7.83242 25.9658,-19.61603 15.7552,-9.54876 3.641,-3.35762 14.0109,-21.49242 27.9838,-14.63032 -10.4449,13.55455 13.8784,-4.67532 -4.2911,-15.5947 13.5188,-4.62167 36.3005,-40.45659 30.0494,-35.41643 1.6912,-19.09843 37.4443,12.37092 35.9077,7.93943 11.5618,13.45568 45.895,-34.24225 32.6672,-9.38577 -4.2452,11.96739 0.4576,25.31695 4.9135,42.87812 22.6377,2.77131 1.0086,58.04194 27.8147,25.94462 12.4368,22.03145 -22.6151,45.30566 0.2352,44.97436 13.5741,-3.71113 36.7222,-17.08345 29.4609,-15.92808 13.8927,-8.17143 -0.7393,19.86882 25.3463,-10.47492 -18.5544,36.04498 24.3222,5.52366 10.1349,-2.41032 15.7559,-23.79883 12.5657,26.78967 17.2797,10.15168 24.8263,2.46227 44.8507,-27.10487 30.4967,-33.61431 19.6001,-5.17276 19.7953,-14.01495 14.2166,7.86617 15.2546,-2.33727 -2.7858,35.55874 16.4868,23.57606 -3.6486,9.30706 31.1196,-17.84731 23.4548,5.93512 16.503,25.43281 14.8643,-19.59671 35.9112,0.98711 2.8084,13.44261 -2.9966,52.63798 24.8088,30.65598 -18.1443,28.6817 20.3267,13.52797 14.4421,19.89149 2.2215,3.93891 47.6587,9.80973 34.8759,36.51077 -11.6242,6.0369 -36.5198,-2.99041 -45.7148,16.62765 -19.7688,18.28744 -19.8006,0.38184 -41.9958,4.29744 -5.0691,9.42266 -4.8972,22.12219 -18.0073,28.7723 -5.2329,15.98056 24.3543,7.62832 32.8602,-13.19692 -3.7192,-7.562 24.8455,-4.0089 29.8339,-7.56619 6.3344,29.17895 -33.819,-4.12863 -33.941,23.42991 11.2355,14.2866 19.7193,28.79034 39.592,7.71665 4.7069,7.27857 -25.2656,32.98979 1.6746,14.41314 19.3201,-7.09999 5.7332,17.31866 -10.4325,12.68606 13.3301,10.25356 -13.9785,41.35137 -34.2945,20.69016 -12.771,-19.14823 -38.2944,13.85363 -33.2657,5.53388 9.723,7.54801 -22.3918,-16.2148 -7.6411,13.58071 6.4831,14.96446 19.9461,26.35081 25.379,-4.05051 20.0948,-7.9885 81.5139,7.64982 48.028,0.48738 -14.8907,-17.65011 48.3636,-24.8005 22.9602,-3.41044 7.515,6.28774 24.9254,2.45487 21.1349,17.10644 5.8437,8.81139 4.0715,28.43424 -10.3849,40.83195 -15.6795,30.10579 -32.143,-10.8022 -27.7499,-0.0153 -20.6464,-21.55108 -16.2531,0.72686 -32.2007,-0.9274 -19.3672,1.39476 10.89,46.97686 -16.2479,33.26948 -14.8865,0.99621 -18.1562,-10.14142 -16.738,12.6579 -15.4838,5.88814 8.6163,29.80528 -18.8129,9.39719 4.7124,-13.20934 -32.5923,-31.1561 -19.0016,-7.39743 23.7185,10.01811 3.5686,16.09318 15.1195,29.00851 7.7604,21.27284 -29.5884,-26.29074 -23.7326,-17.14813 11.9425,-14.87493 -29.9467,-0.91578 -24.8854,-0.86015 -23.6935,3.18313 6.8145,18.17969 -14.53,25.76342 -6.4139,11.90315 -55.2274,36.48108 -37.3027,19.31262 9.9247,5.44264 0.3403,9.87273 18.3836,3.92391 4.7755,-5.98461 23.287,13.75206 6.9495,15.03334 -15.1351,6.99362 -27.1396,-3.65591 -26.568,13.28327 1.8,22.32555 26.225,28.4596 15.839,19.6036 10.5394,21.68247 50.0803,9.93249 57.0674,39.14118 -8.1208,-3.42697 -20.6519,24.18137 -22.509,27.48726 -41.771,0.0276 -38.0522,-11.95005 -34.2679,14.2687 -12.8096,0.6364 -38.4916,9.84812 -28.1324,24.51166 22.1756,-28.24145 11.5976,88.07202 7.0535,29.28479 -20.2283,8.40981 3.6635,22.20063 3.5975,4.63622 12.8536,6.54539 33.8268,-13.65755 18.918,-17.24997 -14.3163,-20.94265 21.8028,-18.47732 16.0747,-17.22469 -9.4714,8.86214 -7.911,9.79617 9.5135,26.47108 -7.7995,27.82365 21.3152,-8.40898 4.1493,18.61543 -14.1666,7.51514 -24.7252,38.49432 -27.7322,41.18222 3.4462,37.67971 -36.5389,19.55951 -30.0032,36.69434 2.0746,-0.3977 26.1369,-13.30333 24.7817,4.89754 -18.2307,19.6596 4.6169,11.63081 -8.3692,18.96888 -24.5413,13.31499 5.5343,1.32508 -6.7257,21.48496 -22.3631,3.1464 18.3076,3.3507 7.4824,8.3253 13.3724,-12.9959 12.8442,18.6698 26.249,14.1921 4.6987,-10.144 32.34,-20.9545 26.7292,-5.7595 -3.8298,15.4141 -10.696,10.3638 -26.6738,16.1953 14.899,19.5826 -13.4023,3.3047 -16.1939,-0.4514 -8.6055,13.379 3.8955,36.3378 -25.2799,21.2662 1.3527,-19.1515 -20.5312,-7.7552 -19.7588,-5.8053 -16.5824,-6.8784 -29.8847,17.6208 -12.6385,26.4507 -18.0134,1.0098 -33.4351,14.7705 -23.0608,11.3676 -18.9142,16.6117 6.0308,9.6015 0.9581,24.4933 -8.3554,8.9939 -21.5664,-18.0637 -23.75,-2.017 4.3724,13.6179 -10.4968,-15.3277 -12.2503,-16.3446 -9.6914,0.7937 -25.3265,-9.6501 -16.0477,-19.0864 -9.5062,-5.6236 -25.1542,-20.0477 -11.0023,-17.7977 -9.1979,4.6452 -5.8653,-42.4655 -25.5748,-24.6556 -17.3223,-2.5985 -17.808,-3.2235 -31.8901,-20.7816 9.8991,-6.803 16.6492,-48.7631 0.9709,-26.72558 1.7989,18.14648 -19.4015,24.46518 -14.206,15.74898 -10.6415,-6.61834 -10.776,-17.86555 -26.2431,-27.28968 10.1538,8.73874 36.1366,-41.46297 19.2185,-23.66238 -23.8533,1.5624 -16.3258,-41.26898 -14.2726,-27.46242 -12.8682,-10.22077 -51.0942,21.13683 -37.6593,13.46881 19.2021,2.52489 -22.9218,22.20966 -9.0185,0.15526 -6.8487,-22.09819 25.038,-40.75606 17.1492,-31.83994 -7.1378,-26.27298 13.9096,-11.21558 5.6714,-29.38127 -6.3173,2.20181 -29.2874,-15.17981 -46.4332,-7.29406 10.522,13.76409 9.9554,11.03642 26.7603,21.53001 -16.5816,-3.51331 13.971,25.08835 -13.2575,13.49796 -24.0126,-21.06778 -26.9703,19.11853 -29.9054,-27.42723 35.193,32.67684 -22.5915,-76.39879 -0.511,-27.31067 17.4866,-4.42612 13.2367,0.73491 16.8175,-21.33234 0.181,-20.13243 -4.5467,-34.20826 -14.2689,-44.60677 -2.4455,6.22264 -39.2709,-13.7984 -29.2239,-6.12882 16.9403,-18.44617 -18.9502,-23.46016 -3.2019,-33.51564 -15.4688,-19.82216 -9.7373,28.54479 -15.4429,3.91212 -0.1477,6.13955 -23.7447,36.07843 -30.7738,25.22058 -13.391,-5.3283 -12.0292,-7.43593 -30.7433,-11.77332 -34.8916,27.79812 -107.5048,19.38024 -103.9113,75.53676 -23.4966,25.46047 -42.8173,56.2222 -25.6522,90.40469 9.8711,30.90947 18.7486,61.24523 17.2342,92.28435 9.0906,33.5043 5.8505,72.087 35.1717,100.6775 5.4069,71.3893 -24.3748,166.1827 61.047,212.1305 65.5007,53.5092 -144.0691,15.6199 -182.6808,27.4997 -93.5288,-2.7051 -189.4379,6.171 -281.3518,-6.0385 l 0.2872,-2.9759 z M 580.77535,830.27748 c 18.8142,0.82723 20.72651,-18.40632 20.4056,-17.75659 10.81761,-3.13343 -4.24287,-24.5254 -16.3781,-5.17109 -1.317,35.30832 -12.14694,-15.88227 -10.27253,-3.79135 1.1386,-16.28546 -70.47152,-3.13221 -49.84937,-1.84023 10.42846,6.35868 24.99623,7.52473 29.1505,17.4827 2.1896,12.33326 7.00947,-12.82289 7.0328,2.18946 10.08922,-8.37326 -2.05496,2.7334 19.9111,8.8871 z m 31.5878,-32.2196 c 23.2881,-1.27013 28.1817,-16.06077 8.27957,-18.35121 -4.9277,14.06002 -3.73707,-6.54709 -13.02727,1.85037 -14.11603,-17.98987 -15.46028,13.1604 -23.48549,-4.85797 -15.03726,5.25405 -23.33955,3.95747 -37.90231,7.15073 -14.8092,-7.04658 -40.31269,3.59031 -24.7814,10 29.81571,-1.36678 60.05165,-11.53078 90.9169,4.20808 z m 95.9939,-0.86905 c -10.55991,-7.45595 20.70932,-67.34724 -10.4501,-60.55083 -7.04028,13.76298 -52.57845,45.27633 -13.4764,50.51103 7.17272,4.56973 15.24284,12.94895 23.9265,10.0398 z m 31.8195,-25.83903 c 33.24883,-14.33657 25.49489,-16.3503 20.6715,-29.99233 7.89771,16.49189 -19.04257,-33.06729 -10.4171,-33.25767 -12.76178,23.44896 24.40996,23.87024 -9.6922,33.34609 -24.22259,23.35975 11.86121,18.40499 -0.5622,29.90391 z m -63.0439,-21.41949 c 20.16234,-13.3346 7.80903,-33.48125 4.3581,-30.33051 -14.39502,-15.01496 20.5102,-14.60587 -2.9712,-19.25 7.76282,-3.22447 -31.06836,-19.39863 -12.1694,-2.23672 10.49393,2.69076 -17.75817,12.45311 -1.1684,21.96955 -12.60301,5.04559 -32.77243,10.74592 -0.3179,22.46076 0.26845,6.89032 10.24238,6.90172 12.2688,7.38692 z m -34.9842,-8.67805 c -1.00657,-25.60817 -17.50919,-12.53027 -4.8607,-22.84297 13.87335,3.749 -17.53279,-34.25808 -17.7734,-7.75798 -5.81322,-2.0943 -34.89731,-16.62116 -23.5259,-17.67916 -8.21765,-6.79605 -26.66667,-20.36349 -12.54467,1.23475 10.28126,13.72868 24.55015,14.08195 14.94677,30.92005 13.47834,-0.29564 29.70824,-16.25834 32.82419,-0.76247 -15.40636,8.18976 -2.35577,18.87843 10.93371,16.88778 z m 799.22085,-9.73072 c 17.4115,-16.72956 72.5278,-49.981 67.4308,-32.77712 -16.8201,-14.76172 27.4055,-11.92526 4.3588,-36.91527 -14.2822,8.96087 -7.0929,-28.1826 -21.1034,5.08452 9.9263,17.36346 -12.4067,-6.94426 -19.2629,-8.81387 -21.383,-19.80781 80.8669,-11.53179 34.6384,-17.99163 1.2824,-10.42883 -16.8208,-20.70532 -21.9998,-35.10199 -3.3108,-5.33756 -29.0022,-42.85404 -29.8902,-29.29541 -35.8117,-34.73023 -0.09,34.37329 -33.0064,5.7849 20.1422,-12.04252 -2.4631,-26.03889 0.8966,-28.44643 -23.1555,11.39399 -30.8774,39.14491 -23.2321,29.5504 -33.4528,28.18257 16.295,7.91693 11.235,11.50179 -31.5035,14.44462 -0.5582,11.9083 -10.7091,20.48284 -20.8574,20.79889 -37.4893,-23.37601 -41.4434,6e-5 14.5357,-6.45876 -25.0979,35.06207 23.1188,19.18655 16.7573,3.48137 -12.483,21.81772 -1.7028,21.48572 0.8034,-5.79137 31.9301,-0.15216 14.7977,13.34305 2.0663,0.003 30.9198,37.29241 -12.1446,28.88784 15.4684,30.99588 50.7144,-13.27994 36.487,28.60873 0.089,11.68927 15.4335,2.93981 21.5316,5.42532 z M 708.07275,713.7242 c 17.98175,-1.24932 23.60974,-22.53242 23.5441,-34.36555 10.26309,-22.77651 2.28528,-70.83563 -21.0038,-32.37142 6.14345,17.7348 -29.49472,27.79792 -9.1821,36.60581 7.52955,10.69789 -6.32969,35.24556 6.6418,30.13116 z m 273.8104,-40.3922 c 19.79525,-25.18926 16.80856,-21.81644 37.26235,-36.01774 9.9037,-3.09858 44.689,-25.65632 66.7855,-26.36768 31.4009,-19.11698 -36.1691,-48.89806 -35.5,-49.34674 -6.9342,20.8347 -22.2998,43.57151 -15.8449,33.77541 -11.1341,-9.94357 -4.4598,27.32926 -36.29801,9.28907 -14.35405,6.91704 -5.13484,53.47267 -24.99814,46.93548 12.78392,-20.04801 -28.3656,1.00656 -7.1335,-3.05818 26.34541,20.46027 -25.2226,21.08939 15.7267,24.79038 z M 2037.931,616.6588 c -2.9812,-16.3683 -24.3992,-36.5204 -45.4973,-39.55653 -19.3589,-18.82692 -31.9427,30.54865 -0.5877,16.8439 10.8802,-4.49969 27.1037,17.05858 26.9964,7.65363 -4.883,14.07831 2.2502,11.09071 19.0886,15.059 z M 228.67755,574.51987 c -5.5956,-19.28616 15.23335,-35.04695 -17.8109,-33.68911 -7.27166,5.45195 16.9799,7.92097 12.9736,10.03543 -11.87896,13.4988 -33.46427,1.58377 -23.459,-1.26639 -7.73703,5.6456 -0.94612,-18.74211 -15.6097,-14.75004 -17.13517,-46.86817 -29.22224,68.41564 -12.8403,29.75004 15.27165,16.71661 8.52156,-2.53 28.6479,-2.37891 0.0659,5.98113 18.52985,11.6903 28.0984,12.29898 z M 2040.431,558.04078 c 34.2769,-1.95997 -8.9433,-12.71559 11.0003,-29.32421 14.202,-7.26544 -59.4662,-27.68997 -40.8701,0.88326 21.0795,16.94076 28.0532,-17.97122 12.0087,20.98463 4.4579,15.06776 18.4665,3.97206 17.8611,7.45632 z M 1422.483,431.19691 c 18.0149,-4.60442 -3.2984,-9.80777 17.2374,-33.56381 17.2753,-10.89502 -2.1493,-43.10121 0.136,-35.36469 11.3627,-13.0597 -26.5866,-9.80088 -8.0747,-4.48503 -28.4646,7.48154 -23.6366,25.53003 -17.7491,32.7208 11.276,3.01901 9.7362,17.9964 2.4488,31.17913 3.9798,2.15608 2.2666,19.50345 6.0016,9.5136 z M 786.50995,298.3498 c 7.96463,-3.92506 43.04272,-19.88279 27.1971,-23.80243 -15.58569,-7.72255 19.44846,-14.06335 2.2239,-28.94757 8.59167,-9.22733 -11.64652,-22.71026 -26.25,-8.66286 16.52382,29.95932 -19.64049,37.64453 -17.738,-0.70351 25.21018,4.74938 2.43173,-52.73534 -9.5236,-22.46859 -26.92822,32.63408 -25.9091,-8.27234 -31.5494,25.45013 5.65198,10.903 0.59936,15.5303 -9.45561,33.70875 21.49088,20.56763 2.6343,-15.05109 21.35857,-13.17834 22.96912,14.04618 12.12936,-3.52212 29.97171,-2.77586 -1.555,9.92927 17.98949,41.49746 11.87173,31.73618 0.37324,0.61448 -2.22564,14.57495 1.8936,9.6441 z m -640.6837,435.81129 c -17.62476,-2.09164 -25.88245,-9.90207 -20.9462,-28.72238 -18.1356,-1.2981 15.52953,-3.71565 6.9228,-15.63132 9.71753,2.59444 34.02802,-7.8316 22.7744,-4.95065 -7.73971,-0.40687 -5.89945,-27.49781 5.1629,-11.37294 13.01001,11.67566 6.78374,-32.02931 16.7128,-4.9038 15.28479,13.75347 -18.63639,1.57075 -10.1402,22.7698 20.14057,18.84561 -22.14342,-14.11893 -11.7459,5.44339 -6.62882,-0.80534 1.31659,24.19976 -12.1313,26.80661 8.04086,5.70816 13.42868,10.80128 3.3907,10.56129 z" />
</svg>
